<svg width="36" height="36" viewBox="0 0 36 36" fill="none" xmlns="http://www.w3.org/2000/svg">
<g clipPath="url(#clip0_77_357)">
<path fill-rule="evenodd" clip-rule="evenodd" d="M0.5 34.2445C0.5 33.5513 1.06201 32.9893 1.75527 32.9893H34.2447C34.938 32.9893 35.5 33.5513 35.5 34.2445C35.5 34.9378 34.938 35.4998 34.2447 35.4998H1.75527C1.06201 35.4998 0.5 34.9378 0.5 34.2445Z" fill="white"/>
<path fill-rule="evenodd" clip-rule="evenodd" d="M30.9866 21.2126C31.6592 21.0444 32.3407 21.4534 32.5089 22.1259L35.4625 33.9403C35.6306 34.6128 35.2217 35.2944 34.5491 35.4625C33.8766 35.6307 33.195 35.2217 33.0269 34.5492L30.0733 22.7348C29.9052 22.0623 30.3141 21.3807 30.9866 21.2126Z" fill="white"/>
<path fill-rule="evenodd" clip-rule="evenodd" d="M5.01336 21.2126C5.68593 21.3807 6.09485 22.0623 5.92671 22.7348L2.97312 34.5492C2.80498 35.2217 2.12345 35.6307 1.45088 35.4625C0.778309 35.2944 0.36939 34.6128 0.537532 33.9403L3.49112 22.1259C3.65926 21.4534 4.34079 21.0444 5.01336 21.2126Z" fill="white"/>
<path fill-rule="evenodd" clip-rule="evenodd" d="M18.0001 3.01055C12.984 3.01055 8.91778 7.07681 8.91778 12.0928C8.91778 14.6732 9.5672 16.644 11.0978 18.8776C12.5502 20.9972 14.7683 23.3169 18.0001 26.5609C21.2318 23.3169 23.4499 20.9972 24.9023 18.8776C26.4329 16.644 27.0823 14.6732 27.0823 12.0928C27.0823 7.07681 23.0161 3.01055 18.0001 3.01055ZM6.40723 12.0928C6.40723 5.69028 11.5975 0.5 18.0001 0.5C24.4026 0.5 29.5929 5.69028 29.5929 12.0928C29.5929 15.2218 28.7655 17.6813 26.9733 20.2967C25.2323 22.8375 22.5533 25.5595 18.8877 29.2252C18.3975 29.7154 17.6027 29.7154 17.1124 29.2252C13.4468 25.5595 10.7678 22.8375 9.0268 20.2967C7.23459 17.6813 6.40723 15.2218 6.40723 12.0928Z" fill="white"/>
<path fill-rule="evenodd" clip-rule="evenodd" d="M18 8.91778C16.2464 8.91778 14.8249 10.3393 14.8249 12.0929C14.8249 13.8464 16.2464 15.268 18 15.268C19.7535 15.268 21.1751 13.8464 21.1751 12.0929C21.1751 10.3393 19.7535 8.91778 18 8.91778ZM12.3143 12.0929C12.3143 8.95278 14.8599 6.40723 18 6.40723C21.1401 6.40723 23.6856 8.95278 23.6856 12.0929C23.6856 15.233 21.1401 17.7785 18 17.7785C14.8599 17.7785 12.3143 15.233 12.3143 12.0929Z" fill="white"/>
<path fill-rule="evenodd" clip-rule="evenodd" d="M3.45361 22.4311C3.45361 21.7378 4.01562 21.1758 4.70889 21.1758H12.3144C13.0076 21.1758 13.5696 21.7378 13.5696 22.4311C13.5696 23.1243 13.0076 23.6863 12.3144 23.6863H4.70889C4.01562 23.6863 3.45361 23.1243 3.45361 22.4311Z" fill="white"/>
<path fill-rule="evenodd" clip-rule="evenodd" d="M22.4303 22.4311C22.4303 21.7378 22.9923 21.1758 23.6856 21.1758H31.2911C31.9843 21.1758 32.5463 21.7378 32.5463 22.4311C32.5463 23.1243 31.9843 23.6863 31.2911 23.6863H23.6856C22.9923 23.6863 22.4303 23.1243 22.4303 22.4311Z" fill="white"/>
</g>
<defs>
<clipPath id="clip0_77_357">
<rect width="35" height="35" fill="white" transform="translate(0.5 0.5)"/>
</clipPath>
</defs>
</svg>
